g PinHole
v 0 -0.07599877 -7.998563
v -1.044419 -0.07599877 -7.979339
v -1.044419 0.1367667 -7.979339
v 0 0.1510183 -7.998563
v -1.044419 0.3549353 -7.979339
v 0 0.3780355 -7.998563
v -1.044419 0.7280877 -7.979338
v 0 0.8320696 -7.998563
v -1.044419 -0.07599877 -7.979339
v 0 -0.07599877 -7.998563
v 0 -0.1178697 -6.500434
v -1.068359 -0.1178697 -6.500434
v 0 0.8320696 -7.998563
v -1.044419 0.7280877 -7.979338
v -1.068359 0.8569189 -6.964905
v 0 0.960901 -6.964905
v -1.044419 0.7280877 -7.979338
v -1.044419 0.3549353 -7.979339
v -1.068359 0.3695246 -6.964905
v -1.068359 0.8569189 -6.964905
v -1.044419 0.1367667 -7.979339
v -1.068359 0.1258274 -6.857331
v -1.044419 -0.07599877 -7.979339
v -1.068359 -0.1178697 -6.500434
v 1.044419 0.1367667 -7.979339
v 1.044419 -0.07599877 -7.979339
v 0 -0.07599877 -7.998563
v 0 0.1510183 -7.998563
v 1.044419 0.3549353 -7.979339
v 0 0.3780355 -7.998563
v 1.044419 0.7280877 -7.979338
v 0 0.8320696 -7.998563
v 1.044419 -0.07599877 -7.979339
v 1.068359 -0.1178697 -6.500434
v 0 -0.1178697 -6.500434
v 0 -0.07599877 -7.998563
v 0 0.8320696 -7.998563
v 0 0.960901 -6.964905
v 1.068359 0.8569189 -6.964905
v 1.044419 0.7280877 -7.979338
v 1.044419 0.7280877 -7.979338
v 1.068359 0.8569189 -6.964905
v 1.068359 0.3695246 -6.964905
v 1.044419 0.3549353 -7.979339
v 1.044419 0.1367667 -7.979339
v 1.068359 0.1258274 -6.857331
v 1.044419 -0.07599877 -7.979339
v 1.068359 -0.1178697 -6.500434
vt 0.5 0
vt 1 0
vt 1 0.25
vt 0.5 0.25
vt 1 0.5
vt 0.5 0.5
vt 1 1
vt 0.5 1
vt 0 0
vt 0.5 0
vt 0.5 1
vt 0 1
vt 0.5 0
vt 1 0
vt 1 1
vt 0.5 1
vt 0 0
vt 0.5 0
vt 0.5 1
vt 0 1
vt 0.75 0
vt 0.75 1
vt 1 0
vt 1 1
vt 1 0.25
vt 1 0
vt 0.5 0
vt 0.5 0.25
vt 1 0.5
vt 0.5 0.5
vt 1 1
vt 0.5 1
vt 0 0
vt 0 1
vt 0.5 1
vt 0.5 0
vt 0.5 0
vt 0.5 1
vt 1 1
vt 1 0
vt 0 0
vt 0 1
vt 0.5 1
vt 0.5 0
vt 0.75 0
vt 0.75 1
vt 1 0
vt 1 1
vn 0 -2.492942E-07 1
vn 0.01840378 -2.49252E-07 0.9998306
vn 0.01840378 -2.698749E-07 0.9998306
vn 0 -2.702821E-07 1
vn 0.01840381 -2.734794E-07 0.9998306
vn 0 -2.730294E-07 1
vn 0.01840382 -2.556033E-07 0.9998306
vn 0 -2.556466E-07 1
vn 0.0002558691 0.9996045 0.02812023
vn 0 0.9996045 0.02812022
vn 0 0.9996045 0.02812023
vn 0.0002558691 0.9996045 0.02812022
vn 0 -0.9920354 0.125959
vn 0.09831508 -0.9872293 0.1253487
vn 0.09831508 -0.9872293 0.1253488
vn 0 -0.9920354 0.125959
vn 0.9997216 0 0.02359346
vn 0.9997322 0.002632122 0.02298978
vn 0.9997329 0.002891885 0.0229302
vn 0.9997216 0 0.02359346
vn 0.9997397 0.009890183 0.02056074
vn 0.9997345 0.01170826 0.01984631
vn 0.9997181 0.01462199 0.01870113
vn 0.9997181 0.01462199 0.01870114
vn -0.01840379 -2.698749E-07 0.9998306
vn -0.01840378 -2.49252E-07 0.9998306
vn 0 -2.492942E-07 1
vn 0 -2.702821E-07 1
vn -0.01840381 -2.734794E-07 0.9998306
vn 0 -2.730294E-07 1
vn -0.01840382 -2.556033E-07 0.9998306
vn 0 -2.556466E-07 1
vn -0.0002558681 0.9996045 0.02812023
vn -0.0002558681 0.9996045 0.02812022
vn 0 0.9996045 0.02812023
vn 0 0.9996045 0.02812022
vn 0 -0.9920354 0.125959
vn 0 -0.9920354 0.125959
vn -0.09831508 -0.9872293 0.1253488
vn -0.09831508 -0.9872293 0.1253488
vn -0.9997216 0 0.02359346
vn -0.9997216 0 0.02359346
vn -0.9997329 0.002891887 0.0229302
vn -0.9997322 0.002632124 0.02298978
vn -0.9997397 0.009890185 0.02056074
vn -0.9997345 0.01170826 0.01984631
vn -0.9997181 0.01462199 0.01870113
vn -0.9997181 0.01462199 0.01870114
g PinHole_0
f 3/3/3 2/2/2 1/1/1
f 4/4/4 3/3/3 1/1/1
f 5/5/5 3/3/3 4/4/4
f 6/6/6 5/5/5 4/4/4
f 7/7/7 5/5/5 6/6/6
f 8/8/8 7/7/7 6/6/6
f 11/11/11 10/10/10 9/9/9
f 12/12/12 11/11/11 9/9/9
f 15/15/15 14/14/14 13/13/13
f 16/16/16 15/15/15 13/13/13
f 19/19/19 18/18/18 17/17/17
f 20/20/20 19/19/19 17/17/17
f 21/21/21 18/18/18 19/19/19
f 22/22/22 21/21/21 19/19/19
f 23/23/23 21/21/21 22/22/22
f 24/24/24 23/23/23 22/22/22
f 27/27/27 26/26/26 25/25/25
f 28/28/28 27/27/27 25/25/25
f 28/28/28 25/25/25 29/29/29
f 30/30/30 28/28/28 29/29/29
f 30/30/30 29/29/29 31/31/31
f 32/32/32 30/30/30 31/31/31
f 35/35/35 34/34/34 33/33/33
f 36/36/36 35/35/35 33/33/33
f 39/39/39 38/38/38 37/37/37
f 40/40/40 39/39/39 37/37/37
f 43/43/43 42/42/42 41/41/41
f 44/44/44 43/43/43 41/41/41
f 43/43/43 44/44/44 45/45/45
f 46/46/46 43/43/43 45/45/45
f 46/46/46 45/45/45 47/47/47
f 48/48/48 46/46/46 47/47/47
