g PinHood
v 1.081055 0.9867288 -6.246794
v -1.081055 0.9867288 -6.246794
v -1.374758 2.201724 -6.733917
v 1.374758 2.201724 -6.733917
v -1.374758 2.201724 -6.733917
v -1.081055 0.9867288 -6.246794
v -1.374758 0.7791637 -6.733918
v 1.374758 2.201724 -6.733917
v 1.374758 0.7791637 -6.733918
v 1.081055 0.9867288 -6.246794
v -1.081055 0.9867288 -6.246794
v 1.081055 0.9867288 -6.246794
v 1.374758 0.7791637 -6.733918
v -1.374758 0.7791637 -6.733918
v -1.374758 0.7791637 -6.733918
v -1.374758 0.7607847 -6.948004
v -1.374758 2.201724 -6.948003
v -1.374758 2.201724 -6.733917
v -1.374758 2.201724 -6.733917
v -1.374758 2.201724 -6.948003
v 1.374758 2.201724 -6.948003
v 1.374758 2.201724 -6.733917
v 1.374758 2.201724 -6.733917
v 1.374758 2.201724 -6.948003
v 1.374758 0.7607847 -6.948004
v 1.374758 0.7791637 -6.733918
v 1.374758 0.7791637 -6.733918
v 1.374758 0.7607847 -6.948004
v -1.374758 0.7607847 -6.948004
v -1.374758 0.7791637 -6.733918
vt 0 0.5
vt 0 0.5
vt 0 1
vt 0 1
vt 0 0
vt 0.5 1
vt 0.5 0
vt 0 0
vt 0.5 0
vt 0.5 1
vt 0.5 1
vt 0.5 1
vt 0.5 0
vt 0.5 0
vt 0.5 0
vt 0.5 0
vt 0 0
vt 0 0
vt 0 1
vt 0 1
vt 0 1
vt 0 1
vt 0 0
vt 0 0
vt 0.5 0
vt 0.5 0
vt 0.5 0
vt 0.5 0
vt 0.5 0
vt 0.5 0
vn 0 0.3721316 0.9281799
vn 0 0.3721316 0.9281799
vn 0 0.3721316 0.9281799
vn 0 0.3721316 0.9281799
vn -0.8563831 0 0.5163409
vn -0.8563831 0 0.5163409
vn -0.8563831 0 0.516341
vn 0.8563831 0 0.5163409
vn 0.8563831 0 0.516341
vn 0.8563831 0 0.5163409
vn 0 -0.9199649 0.3920006
vn 0 -0.9199649 0.3920006
vn 0 -0.9199649 0.3920006
vn 0 -0.9199649 0.3920006
vn -1 0 0
vn -1 0 0
vn -1 0 0
vn -1 0 0
vn 0 1 1.629207E-07
vn 0 1 1.629207E-07
vn 0 1 1.629207E-07
vn 0 1 1.629207E-07
vn 1 0 0
vn 1 0 0
vn 1 0 0
vn 1 0 0
vn 0 -0.9963353 0.0855336
vn 0 -0.9963353 0.0855336
vn 0 -0.9963353 0.0855336
vn 0 -0.9963353 0.0855336
g PinHood_0
f 3/3/3 2/2/2 1/1/1
f 4/4/4 3/3/3 1/1/1
f 7/7/7 6/6/6 5/5/5
f 10/10/10 9/9/9 8/8/8
f 13/13/13 12/12/12 11/11/11
f 14/14/14 13/13/13 11/11/11
f 17/17/17 16/16/16 15/15/15
f 18/18/18 17/17/17 15/15/15
f 21/21/21 20/20/20 19/19/19
f 22/22/22 21/21/21 19/19/19
f 25/25/25 24/24/24 23/23/23
f 26/26/26 25/25/25 23/23/23
f 29/29/29 28/28/28 27/27/27
f 30/30/30 29/29/29 27/27/27
