g LaneBarrierR
v 1.376272 -0.0002684844 7.529482
v 1.208208 -0.0002684844 7.529482
v 1.208208 0.127522 7.5
v 1.358208 0.1002621 7.5
v 1.058208 0.1002621 7.5
v 1.040144 -0.0002684844 7.529482
v 1.040144 -0.0002660167 -6.680556
v 1.058208 0.1002646 -6.651073
v 1.058208 0.1002621 7.5
v 1.040144 -0.0002684844 7.529482
v 1.040144 0.0392144 -6.77866
v 1.058208 0.130256 -6.724831
v 1.058208 0.1841482 -6.78482
v 1.040144 0.1103511 -6.858617
v 1.040144 0.1951952 -6.925714
v 1.058208 0.2484033 -6.835123
v 1.058208 0.3219017 -6.864697
v 1.040144 0.2924193 -6.965227
v 1.058208 0.1002646 -6.651073
v 1.208208 0.1275244 -6.651073
v 1.208208 0.127522 7.5
v 1.058208 0.1002621 7.5
v 1.358208 0.1002621 7.5
v 1.358208 0.1002646 -6.651073
v 1.358208 0.130256 -6.724831
v 1.208208 0.153875 -6.715489
v 1.058208 0.130256 -6.724831
v 1.208208 0.2011507 -6.767817
v 1.358208 0.1841482 -6.78482
v 1.358208 0.2484033 -6.835123
v 1.208208 0.2575062 -6.811677
v 1.058208 0.2484033 -6.835123
v 1.058208 0.1841482 -6.78482
v 1.208208 0.3219017 -6.837436
v 1.358208 0.3219017 -6.864697
v 1.058208 0.3219017 -6.864697
v 1.358208 0.1002646 -6.651073
v 1.376272 -0.0002660167 -6.680556
v 1.376272 -0.0002684844 7.529482
v 1.358208 0.1002621 7.5
v 1.376272 0.0392144 -6.778661
v 1.358208 0.130256 -6.724831
v 1.358208 0.1841482 -6.78482
v 1.376272 0.1103511 -6.858617
v 1.376272 0.1951952 -6.925714
v 1.358208 0.2484033 -6.835123
v 1.358208 0.3219017 -6.864697
v 1.376272 0.2924193 -6.965227
v 1.376272 1.674408 -6.965223
v 1.358208 1.644925 -6.864692
v 1.208208 1.644925 -6.837431
v 1.208208 1.674408 -6.965223
v 1.058208 1.644925 -6.864692
v 1.040144 1.674408 -6.965223
v 1.040144 1.674408 -6.965223
v 1.058208 1.644925 -6.864692
v 1.058208 0.3219017 -6.864697
v 1.040144 0.2924193 -6.965227
v 1.058208 1.644925 -6.864692
v 1.208208 1.644925 -6.837431
v 1.208208 0.3219017 -6.837436
v 1.058208 0.3219017 -6.864697
v 1.358208 0.3219017 -6.864697
v 1.358208 1.644925 -6.864692
v 1.358208 1.644925 -6.864692
v 1.376272 1.674408 -6.965223
v 1.376272 0.2924193 -6.965227
v 1.358208 0.3219017 -6.864697
vt 0 0
vt 0.5 0
vt 0.5 1
vt 0 1
vt 1 1
vt 1 0
vt 0 0
vt 1 0
vt 1 1
vt 0 1
vt 0 0
vt 1 0
vt 1 0
vt 0 0
vt 0 0
vt 1 0
vt 1 0
vt 0 0
vt 0 0
vt 0.5 0
vt 0.5 1
vt 0 1
vt 1 1
vt 1 0
vt 1 0
vt 0.5 0
vt 0 0
vt 0.5 0
vt 1 0
vt 1 0
vt 0.5 0
vt 0 0
vt 0 0
vt 0.5 0
vt 1 0
vt 0 0
vt 0 0
vt 1 0
vt 1 1
vt 0 1
vt 1 0
vt 0 0
vt 0 0
vt 1 0
vt 1 0
vt 0 0
vt 0 0
vt 1 0
vt 1 0
vt 1 1
vt 0.5 1
vt 0.5 0
vt 0 1
vt 0 0
vt 0 0
vt 1 0
vt 1 1
vt 0 1
vt 0 0
vt 0.5 0
vt 0.5 1
vt 0 1
vt 1 1
vt 1 0
vt 0 0
vt 1 0
vt 1 1
vt 0 1
vn 0.0215627 0.2515908 0.9675935
vn 0 0.2516493 0.9678186
vn 0 0.2516493 0.9678186
vn 0.0215627 0.2515908 0.9675935
vn -0.02156272 0.2515908 0.9675935
vn -0.02156272 0.2515908 0.9675935
vn -0.9853821 0.1669109 0.03410043
vn -0.9853163 0.1680263 0.03031304
vn -0.9842371 0.1768538 0
vn -0.9842371 0.1768539 0
vn -0.9857275 0.1431278 0.08863223
vn -0.9857258 0.1426887 0.08935671
vn -0.9853358 0.1166189 0.124553
vn -0.9853364 0.1170448 0.1241478
vn -0.9855281 0.08514658 0.1465757
vn -0.9855283 0.08500357 0.1466572
vn -0.985275 0.0303984 0.1682532
vn -0.9853356 0.03419881 0.1671654
vn -0.1759495 0.9667758 0.1854355
vn 0 0.9804731 0.1966532
vn 0 1 1.729846E-07
vn -0.1788037 0.9838848 1.701969E-07
vn 0.1788037 0.9838848 1.701969E-07
vn 0.1759495 0.9667758 0.1854355
vn 0.164397 0.8373222 0.5214069
vn 0 0.8453174 0.5342645
vn -0.164397 0.8373222 0.5214069
vn 0 0.6815702 0.7317528
vn 0.1581958 0.6734354 0.7221211
vn 0.1634668 0.4902376 0.8561224
vn 0 0.5007933 0.8655669
vn -0.1634669 0.4902376 0.8561224
vn -0.1581958 0.6734354 0.7221211
vn 0 0.19379 0.9810431
vn 0.1755544 0.182857 0.9673387
vn -0.1755544 0.182857 0.9673387
vn 0.9853159 0.168029 0.03031341
vn 0.9853816 0.1669136 0.03410088
vn 0.9842366 0.1768568 0
vn 0.9842366 0.1768567 0
vn 0.9857271 0.1431299 0.08863311
vn 0.9857254 0.1426908 0.08935746
vn 0.9853356 0.1166202 0.124554
vn 0.9853361 0.1170461 0.1241488
vn 0.9855278 0.08514726 0.1465769
vn 0.9855281 0.08500428 0.1466584
vn 0.9852747 0.03039865 0.1682546
vn 0.9853354 0.03419909 0.1671667
vn 0.02156327 0.9675924 0.2515949
vn 0.02156327 0.9675924 0.2515949
vn 0 0.9678174 0.2516534
vn 0 0.9678174 0.2516534
vn -0.02156328 0.9675924 0.2515948
vn -0.02156327 0.9675924 0.2515948
vn -0.9842369 -6.273366E-07 0.1768552
vn -0.9842369 -6.273366E-07 0.1768552
vn -0.985275 0.0303984 0.1682532
vn -0.9853356 0.03419881 0.1671654
vn -0.1788055 -3.791466E-06 0.9838845
vn 0 -3.853569E-06 1
vn 0 0.19379 0.9810431
vn -0.1755544 0.182857 0.9673387
vn 0.1755544 0.182857 0.9673387
vn 0.1788055 -3.791466E-06 0.9838845
vn 0.9842366 -6.275091E-07 0.1768566
vn 0.9842366 -6.275091E-07 0.1768566
vn 0.9853354 0.03419909 0.1671667
vn 0.9852747 0.03039865 0.1682546
g LaneBarrierR_0
f 3/3/3 2/2/2 1/1/1
f 4/4/4 3/3/3 1/1/1
f 3/3/3 5/5/5 2/2/2
f 5/5/5 6/6/6 2/2/2
f 9/9/9 8/8/8 7/7/7
f 10/10/10 9/9/9 7/7/7
f 11/11/11 7/7/7 8/8/8
f 12/12/12 11/11/11 8/8/8
f 12/12/12 13/13/13 11/11/11
f 13/13/13 14/14/14 11/11/11
f 15/15/15 14/14/14 13/13/13
f 16/16/16 15/15/15 13/13/13
f 16/16/16 17/17/17 15/15/15
f 17/17/17 18/18/18 15/15/15
f 21/21/21 20/20/20 19/19/19
f 22/22/22 21/21/21 19/19/19
f 21/21/21 23/23/23 20/20/20
f 23/23/23 24/24/24 20/20/20
f 20/20/20 24/24/24 25/25/25
f 26/26/26 20/20/20 25/25/25
f 27/27/27 19/19/19 20/20/20
f 26/26/26 27/27/27 20/20/20
f 28/28/28 26/26/26 25/25/25
f 29/29/29 28/28/28 25/25/25
f 29/29/29 30/30/30 28/28/28
f 30/30/30 31/31/31 28/28/28
f 31/31/31 32/32/32 28/28/28
f 32/32/32 33/33/33 28/28/28
f 33/33/33 27/27/27 26/26/26
f 28/28/28 33/33/33 26/26/26
f 34/34/34 31/31/31 30/30/30
f 31/31/31 34/34/34 32/32/32
f 35/35/35 34/34/34 30/30/30
f 34/34/34 36/36/36 32/32/32
f 39/39/39 38/38/38 37/37/37
f 40/40/40 39/39/39 37/37/37
f 37/37/37 38/38/38 41/41/41
f 42/42/42 37/37/37 41/41/41
f 43/43/43 42/42/42 41/41/41
f 44/44/44 43/43/43 41/41/41
f 44/44/44 45/45/45 43/43/43
f 45/45/45 46/46/46 43/43/43
f 47/47/47 46/46/46 45/45/45
f 48/48/48 47/47/47 45/45/45
f 51/51/51 50/50/50 49/49/49
f 52/52/52 51/51/51 49/49/49
f 53/53/53 51/51/51 52/52/52
f 54/54/54 53/53/53 52/52/52
f 57/57/57 56/56/56 55/55/55
f 58/58/58 57/57/57 55/55/55
f 61/61/61 60/60/60 59/59/59
f 62/62/62 61/61/61 59/59/59
f 61/61/61 63/63/63 60/60/60
f 63/63/63 64/64/64 60/60/60
f 67/67/67 66/66/66 65/65/65
f 68/68/68 67/67/67 65/65/65
